<svg version="1" xmlns="http://www.w3.org/2000/svg" width="256" height="256" viewBox="0 0 192.000000 192.000000"><path d="M144.9.4c-.2.2-3.4.6-7.2 1-25.8 2.2-55 12.9-61.4 22.5-3.6 5.3-7.4 20.5-8.8 35.4-1.1 10.5-1.5 33.6-.6 34.1.5.3 2.7-1.8 4.9-4.7 16.2-20.9 60.6-54.8 97-73.8C178.3 9.8 183 6.5 183 4.8c0-.5-1.7-1.6-3.7-2.5-2.8-1.2-7.7-1.7-18.9-1.9-8.3-.2-15.3-.2-15.5 0z"/><path d="M50.9 36.9c-14.1 9-22.1 23.7-22.2 40.6-.1 11.6 1.3 14.6 11.9 25.2 9.9 9.9 29.1 22.9 31 21 .3-.3-.5-4.5-1.9-9.4C61.8 86.4 58.9 68 58.8 45.7c0-13.4-.3-13.7-7.9-8.8zM126.8 50c-5.5 1.6-13.5 6.2-21.1 11.9-9.4 7-19.9 17-19.4 18.5.2.7 4.8.9 13.3.7 7.1-.1 12.6 0 12.2.4-.3.4 3.1 6.4 7.7 13.3 14.1 21.4 24.1 41.8 29.5 60.2 1.3 4.1 2.6 7.9 3.1 8.4 1.3 1.5 8.5-6.7 11.9-13.5 6-11.9 7.1-25.3 2.9-38.2-2.7-8.4-7.3-13.5-16.6-18.4C144.2 90 124.6 83 121.6 83c-1 0-1.5-.4-1.1-.9.3-.5 1.5-.8 2.8-.6 1.2.2 5.4.7 9.2 1 11.3 1 27.4 4 37 6.9 7.5 2.4 7.8 2.2 7.2-2.5-1.4-10.3-12.3-25.2-23.1-31.4-8.8-5.1-20.3-7.5-26.8-5.5zm-8.1 31.6c-.3.3-1.2.4-1.9.1-.8-.3-.5-.6.6-.6 1.1-.1 1.7.2 1.3.5z"/><path d="M12.2 88.3c-3 3.8-3.6 15.4-1.3 24.4 2.8 10.8 5.9 16.2 13.6 23.9 8.6 8.8 12.9 10.4 25.6 9.9 9.1-.4 10.2-.6 22.8-3.6 8.8-2 17.8-5.5 16.8-6.5-.3-.3-6.5-3.5-13.7-7-23.3-11.3-38.7-21.3-55.4-35.9-5.4-4.7-7.7-6.1-8.4-5.2zM121.5 111.5c-8.7 31.2-16.4 50-28.7 70.2-2.7 4.5-4.7 8.6-4.4 9.1.9 1.5 11.8 1.3 18-.3 13.3-3.5 25.3-12.8 31.4-24.3 3.9-7.2 4.2-14.7 1.3-25.8-3.2-12.1-9.8-27.3-13.9-32.4l-2-2.5-1.7 6z"/><path d="M105.5 132.6c-24.8 11.7-52.2 20.2-74.3 22.9-2.9.4-5.2 1.2-5.2 1.8 0 4.8 12 15 22.8 19.6 5 2.1 16.1 4 19.9 3.5 1-.2 3.8-.6 6.3-.9 7.4-1 12.7-4.2 18.7-11.4 8.3-10 19.9-32.5 19.1-37-.3-1.5-1.2-1.3-7.3 1.5z"/></svg>